<svg width="22" height="16" viewBox="0 0 22 16" fill="none" xmlns="http://www.w3.org/2000/svg">
<rect width="22" height="16" fill="#E5E5E5"/>
<g id="Tudo Gostoso">
<rect width="1440" height="1826" transform="translate(-523 -517)" fill="white"/>
<rect id="Background" x="-261" y="-517" width="916" height="1826" fill="#F0F0F0"/>
<rect id="BG-Brownie" x="-202" y="-493" width="798" height="574" rx="5" fill="white"/>
<g id="Icones">
<g id="Rendimento">
<rect id="Rectangle 7" x="-48" y="-16" width="118" height="85" rx="5" fill="#F0F0F0"/>
<path id="room_service" d="M1 13H21V15H1V13ZM12.84 3.79C12.94 3.55 13 3.28 13 3C13 1.9 12.1 1 11 1C9.9 1 9 1.9 9 3C9 3.28 9.06 3.55 9.16 3.79C5.25 4.6 2.27 7.93 2 12H20C19.73 7.93 16.75 4.6 12.84 3.79Z" stroke="#FF6A28" stroke-width="1.5"/>
</g>
</g>
</g>
</svg>
